# xmcd CD database file
#
# Track frame offsets:
#	150
#	16422
#	38115
#	56050
#	72673
#	100684
#	116786
#	134840
#	149882
#
# Disc length: 2256 seconds
#
# Revision: 1
# Processed by: cddbd v1.5.2PL0 Copyright (c) Steve Scherf et al.
# Submitted via: CDex 1.70beta2
#
DISCID=9208ce09
DTITLE=Blues News Sampler - To Be Discovered
DYEAR=2008
DGENRE=Blues
TTITLE0=Oli Brown - Psycho
TTITLE1=Mike Zito - Slow It Down
TTITLE2=Jay Tamkin - Leavin This Town
TTITLE3=Eric Steckel  - Just Walk Away 
TTITLE4=Danny Bryant - Any Wonder
TTITLE5=Tab Benoit - Fever For The Bayou
TTITLE6=JW-Jones - Tickets On Yourself
TTITLE7=Michael Burks - Love Disease
TTITLE8=Marc Reece - Long Way
EXTD=YEAR: 2008
EXTT0=
EXTT1=
EXTT2=
EXTT3=
EXTT4=
EXTT5=
EXTT6=
EXTT7=
EXTT8=
PLAYORDER=
